<svg width="1920" height="751" viewBox="0 0 1920 751" fill="none" xmlns="http://www.w3.org/2000/svg">
<g clip-path="url(#clip0_170_68416)">
<g clip-path="url(#clip1_170_68416)">
<path d="M1920 0.289062H0V750.289H1920V0.289062Z" fill="#040818"/>
<path d="M1921.3 -10.7109H-1V762.389H1921.3V-10.7109Z" fill="#040818"/>
<mask id="mask0_170_68416" style="mask-type:luminance" maskUnits="userSpaceOnUse" x="-1" y="-11" width="1923" height="774">
<path d="M1921.3 -10.7109H-1V762.389H1921.3V-10.7109Z" fill="white"/>
</mask>
<g mask="url(#mask0_170_68416)">
<path d="M10.8984 158.488L10.3984 124.388L100.698 99.5877C115.898 89.1877 139.298 91.0877 152.798 103.888L202.898 123.388C207.998 128.188 205.898 154.588 205.798 163.488C205.698 175.188 201.198 184.388 191.698 190.988L105.498 249.988L10.8984 158.488Z" fill="#000E84"/>
<path d="M102.5 214.188L105.5 249.988L10.9 158.488L10 123.988L102.5 214.188Z" fill="black"/>
<path d="M10 123.987L97.8 63.787C113 53.387 136.4 55.2869 149.9 68.0869L195 110.887C208.5 123.687 207.1 142.587 191.9 152.987L102.5 214.287L10 123.987Z" fill="#050A1A" stroke="#1B30AF" stroke-miterlimit="10"/>
<path d="M95.0986 256.289L7.99861 316.889C-7.20139 327.289 -30.6014 325.389 -44.1014 312.589L-95.4014 261.989C-98.8014 258.689 -102.601 254.589 -104.301 245.689C-105.201 240.589 -104.801 212.289 -103.301 209.389C-100.801 204.689 -94.0014 228.489 -88.3014 224.489L5.69861 164.789L94.6986 219.689L95.0986 256.289Z" fill="#02024F"/>
<path d="M94.9989 219.488L4.99889 281.088C-10.2011 291.488 -33.6011 289.588 -47.1011 276.788L-94.4011 230.788C-107.901 217.988 -106.501 199.088 -91.3011 188.688L2.69889 128.988L94.9989 219.488Z" fill="#1B30AF" stroke="#8094FF" stroke-miterlimit="10"/>
<path d="M89.9981 148.186C89.3981 148.186 88.7981 147.886 88.3981 147.286C87.7981 146.386 88.0981 145.186 88.9981 144.686L142.898 111.386C143.798 110.786 144.998 111.086 145.498 111.986C146.098 112.886 145.798 114.086 144.898 114.586L90.9981 147.886C90.6981 148.086 90.3981 148.186 89.9981 148.186Z" fill="#C7CED1"/>
<path d="M139.8 152.887C139.3 152.887 138.8 152.687 138.4 152.387L92.9998 109.587C92.1998 108.887 92.1998 107.687 92.8998 106.887C93.5998 106.087 94.7998 106.087 95.5998 106.787L141 149.587C141.8 150.287 141.8 151.487 141.1 152.287C140.7 152.687 140.2 152.887 139.8 152.887Z" fill="#C7CED1"/>
<path d="M-35.4003 231.988C-36.0003 231.988 -36.6003 231.688 -37.0003 231.088C-37.6003 230.188 -37.3003 228.988 -36.4003 228.388L17.1997 194.488C18.0997 193.888 19.2997 194.188 19.8997 195.088C20.4997 195.988 20.1997 197.188 19.2997 197.788L-34.3003 231.688C-34.7003 231.888 -35.0003 231.988 -35.4003 231.988Z" fill="#C7CED1"/>
<path d="M1180.4 356.188C1180.8 370.588 1167.7 383.088 1148.4 383.588C1129.2 384.088 1111.5 373.788 1111.1 359.388C1111.1 358.688 1110.3 341.288 1110.4 340.588C1111.5 327.188 1126.5 331.588 1144.8 331.088C1161.9 330.588 1176.7 325.488 1180 337.588C1180.3 338.688 1180.2 353.888 1180.3 355.088C1180.3 355.388 1180.4 355.788 1180.4 356.188Z" fill="black"/>
<path d="M1056.9 261.988L1063.8 268.588C1068.7 265.488 1072.4 272.888 1076.9 275.988C1077.4 276.288 1077.8 276.688 1078.2 277.088L1210.9 386.788C1211.9 387.588 1212.1 392.988 1212.2 398.188C1212.3 402.788 1212.5 407.188 1212.5 408.188C1212.3 412.988 1207.6 415.488 1207.6 415.488C1203.7 417.988 1197.8 417.988 1193.5 416.488C1191.7 415.888 1190.2 414.888 1188.8 413.588L1059.2 288.988C1057 287.188 1055.6 283.788 1055.8 279.788C1056 277.488 1054.3 263.688 1056.9 261.988Z" fill="#000E84"/>
<path d="M1156.1 382.587L1156.4 364.487C1156.4 364.487 1147.4 367.287 1135.8 365.187C1124.2 363.087 1116.7 355.387 1116.7 355.387L1117.2 372.687C1117.2 372.687 1123.4 380.087 1135.4 382.487C1147.5 384.987 1156.1 382.587 1156.1 382.587Z" fill="#1B30AF"/>
<path d="M1195.7 417.186L1195.6 398.486L1212 389.586L1212.6 406.486C1212.6 406.486 1213.7 412.586 1207 416.086C1201.4 418.886 1195.7 417.186 1195.7 417.186Z" fill="#1B30AF"/>
<path d="M1153.5 331.487L1078.6 258.487C1078.2 258.087 1077.8 257.687 1077.3 257.387C1072.8 254.287 1065.5 254.187 1060.6 257.287C1055.4 260.587 1054.8 266.087 1059.2 269.687L1135.8 344.287L1153.5 331.487Z" fill="#1B30AF" stroke="#8094FF" stroke-miterlimit="10"/>
<path d="M1145.5 353.688L1189.2 395.088C1190.5 396.388 1192.1 397.388 1193.9 397.988C1198.2 399.488 1203.6 398.988 1207.6 396.488C1212.8 393.188 1213.4 387.688 1209 384.088L1164.5 341.988L1145.5 353.688Z" fill="#050A1A" stroke="#1B30AF" stroke-miterlimit="10"/>
<path d="M1180.1 340.087C1180.5 354.487 1165.2 365.387 1146 365.887C1126.8 366.387 1110.8 355.187 1110.4 340.787C1110 326.387 1125.3 314.387 1144.5 313.787C1163.8 313.387 1179.7 325.687 1180.1 340.087Z" fill="black"/>
<path d="M1146.4 362.972C1165.61 362.439 1180.87 350.372 1180.47 336.018C1180.07 321.664 1164.17 310.46 1144.96 310.993C1125.75 311.525 1110.5 323.593 1110.9 337.947C1111.29 352.3 1127.19 363.505 1146.4 362.972Z" fill="#C7CED1"/>
<path d="M1090.7 137.289L1082.2 145.189C1076.3 141.289 1071.6 150.189 1066.1 153.889C1065.5 154.289 1065 154.689 1064.5 155.189L852 276.489C850.7 277.489 850.4 283.989 850.1 290.289C849.8 295.889 849.5 301.289 849.5 302.389C849.6 308.189 855.3 311.389 855.3 311.389C860 314.489 867.1 314.589 872.4 312.989C874.5 312.289 876.5 311.089 878.1 309.589L1087.2 169.989C1089.9 167.889 1091.7 163.689 1091.5 158.889C1091.4 156.089 1093.8 139.289 1090.7 137.289Z" fill="#000E84"/>
<path d="M869.7 313.587L870.2 290.887L850.6 279.688L849.5 300.188C849.5 300.188 848.1 307.587 856.1 311.987C862.8 315.587 869.7 313.587 869.7 313.587Z" fill="#02024F"/>
<path d="M1086.3 131.589C1080.4 127.689 1071.6 127.689 1066.1 131.289C1065.5 131.689 1065 132.089 1064.5 132.589L854.401 273.289C849.001 277.489 849.601 284.289 855.801 288.289C860.501 291.389 867.101 292.089 872.301 290.389C874.401 289.689 876.401 288.489 878.001 286.989L1087.7 146.689C1093.2 142.389 1092.6 135.689 1086.3 131.589Z" fill="#C7CED1"/>
<path d="M1014.3 164.989L854.401 273.289C849.001 277.489 849.601 284.289 855.801 288.289C860.501 291.389 867.101 292.089 872.301 290.389C874.401 289.689 877.001 288.489 878.701 286.989L1033 183.389C1038.4 179.189 1014.8 164.589 1014.3 164.989Z" fill="#1B30AF" stroke="#8094FF" stroke-miterlimit="10"/>
<path d="M956.599 185.89C955.799 203.29 974.099 216.89 997.399 217.99C1020.7 219.09 1040.3 205.79 1041.1 188.39C1041.9 170.99 1023.7 155.99 1000.4 154.89C976.999 153.79 957.399 168.49 956.599 185.89Z" fill="black"/>
<path d="M956.601 191.588C957.401 203.788 972.601 218.088 995.901 219.188C1019.2 220.288 1039.3 207.988 1040 193.588C1040 192.888 1020.8 167.488 998.701 166.488C978.001 165.488 956.401 179.588 956.301 180.688C956.301 180.988 956.601 191.188 956.601 191.588Z" fill="black"/>
<path d="M1031.1 207.388C1031.1 206.688 1017.6 184.988 995.502 183.988C974.802 182.988 953.202 197.088 953.102 198.188C953.102 198.588 994.902 203.988 994.902 204.388C995.102 207.788 996.602 207.788 990.902 211.688C985.802 215.188 974.002 222.488 966.102 228.288C972.802 232.888 977.402 235.688 988.202 236.188L1031.1 207.388Z" fill="black"/>
<path d="M1040.56 184.849C1041.37 167.416 1023.15 152.406 999.872 151.324C976.592 150.243 957.062 163.498 956.252 180.931C955.442 198.364 973.658 213.373 996.939 214.455C1020.22 215.537 1039.75 202.282 1040.56 184.849Z" fill="#1B30AF" stroke="#8094FF" stroke-miterlimit="9.9998"/>
<path d="M497.699 102.389C497.699 156.289 441.299 199.989 371.599 199.989C301.899 199.989 244.599 157.689 244.599 103.789C244.599 100.989 243.799 71.3891 244.099 68.6891C249.599 18.4891 305.499 4.78906 371.599 4.78906C433.499 4.78906 485.499 17.3891 496.099 62.9891C497.099 67.2891 497.299 93.5891 497.499 98.0891C497.599 99.4891 497.699 100.889 497.699 102.389Z" fill="#02024F"/>
<path d="M359.297 157.191L359.597 199.491C359.597 199.491 423.297 205.891 463.797 169.991C504.297 134.091 497.597 102.291 497.597 102.291L496.997 59.1914L359.297 157.191Z" fill="#000E84"/>
<path d="M370.998 156.79C440.642 156.79 497.098 113.093 497.098 59.1898C497.098 5.28686 440.642 -38.4102 370.998 -38.4102C301.355 -38.4102 244.898 5.28686 244.898 59.1898C244.898 113.093 301.355 156.79 370.998 156.79Z" fill="#050A1A" stroke="#1B30AF" stroke-miterlimit="10"/>
<path d="M351.098 69.8906C371.808 69.8906 388.598 56.9069 388.598 40.8906C388.598 24.8744 371.808 11.8906 351.098 11.8906C330.387 11.8906 313.598 24.8744 313.598 40.8906C313.598 56.9069 330.387 69.8906 351.098 69.8906Z" fill="#1B30AF"/>
<path d="M487.498 77.0883C474.298 61.9883 451.898 51.9883 426.498 51.9883C385.898 51.9883 352.898 77.4883 352.898 108.988C352.898 125.588 360.598 139.188 375.198 149.688C375.198 149.688 418.798 149.188 450.698 126.488C481.198 104.788 487.498 77.0883 487.498 77.0883Z" fill="#1B30AF"/>
<path d="M1998 183.491L1857.1 284.991C1846.1 292.491 1831.3 291.291 1821.7 282.091L1754.8 218.391C1752.3 216.091 1748.7 211.891 1745.1 208.091C1743.3 206.191 1741.2 203.591 1740.4 197.991C1740.1 195.991 1741.2 164.691 1741.6 157.391C1741.9 152.091 1761.4 164.391 1766.6 160.891L1894.7 83.3906C1902.2 78.3906 1911 45.4906 1921.4 41.8906C1923.3 41.1906 1932.7 52.4906 1934.1 53.1906C1934.8 53.5906 1939.3 64.4906 1937.9 71.0906C1936 79.6906 1927.8 84.4906 1928.6 85.1906C1928.6 85.1906 1993.2 111.591 2008.7 121.891C2008.8 123.991 2009.1 127.691 2009.1 130.391C2009.2 131.091 2009.4 130.191 2009.5 130.291C2009.7 130.791 2008.7 164.191 2008.6 165.291C2008.1 172.591 2004.7 178.791 1998 183.491Z" fill="#02024F"/>
<path d="M1883.6 159.79L1764.6 171.79C1746.1 174.39 1737.4 163.29 1743.2 151.99C1746.2 146.09 1755.7 139.49 1764.5 133.69L1897.2 44.9896C1908.3 35.7896 1933.4 36.3896 1927.7 61.4896L1899.9 146.29C1897.4 153.59 1891.2 158.79 1883.6 159.79Z" fill="#1B30AF" stroke="#1B30AF" stroke-miterlimit="10"/>
<path d="M1752.2 179.389C1752.2 179.389 1815.5 172.889 1855 168.289L1835.9 252.389C1835.9 252.389 1830 253.089 1823.9 247.789C1817.8 242.589 1752.2 179.389 1752.2 179.389Z" fill="#1B30AF" stroke="#1B30AF" stroke-miterlimit="10"/>
<path d="M1933.8 53.0898C1933.8 53.0898 1934.4 58.7898 1933.2 63.4898C1932.3 66.6898 1919.6 104.59 1911.6 129.29L2008.7 124.29C2008.7 124.29 2009.8 117.19 2003.7 111.39C1997.6 105.69 1997.6 105.69 1997.6 105.69L1933.8 53.0898Z" fill="#4331E0"/>
<path d="M1842.8 253.489L1842.4 289.789C1842.4 289.789 1849.2 291.189 1859.5 283.889C1869.8 276.589 2002 181.489 2002 181.489C2002 181.489 2008.2 175.489 2008.6 166.589C2009.1 157.689 2009.3 130.289 2009.3 130.289L1873.6 220.789L1842.8 253.489Z" fill="#000E84"/>
<path d="M2009.3 130.191L1910 136.091L1903.7 152.491C1903.7 152.491 1898.2 163.691 1887.3 165.291C1876.4 166.891 1861.7 168.391 1861.7 168.391L1842.9 253.391C1842.9 253.391 1852 253.191 1862.4 245.491C1872.8 237.791 2000.6 146.891 2000.6 146.891C2000.6 146.891 2010 138.091 2009.3 130.191Z" fill="#1B30AF" stroke="#1B30AF" stroke-miterlimit="10"/>
<path d="M1911.2 272.891L1877.6 241.291L1872.7 240.191L1872.9 274.591L1903.6 306.491C1903.6 306.491 1910.3 313.491 1918.2 308.691C1918.2 308.691 1923.6 305.691 1923.4 295.891C1923.3 289.991 1924.1 262.391 1924.1 262.391L1911.2 272.891Z" fill="#000E84"/>
<path d="M1860.9 246.59C1860.9 246.59 1871.4 238.79 1878.5 245.09C1884.1 250.09 1905.1 273.39 1905.1 273.39C1905.1 273.39 1910.3 279.89 1918.1 275.89C1926.1 271.79 1923.8 253.59 1923.8 253.59L1921.3 203.19L1916.4 202.59L1866.3 233.39L1860.9 246.59Z" fill="#1B30AF" stroke="#1B30AF" stroke-miterlimit="10"/>
<path d="M449.098 556.087L355.598 469.187C347.398 461.187 343.598 450.687 343.998 440.287C344.198 435.387 341.198 375.087 343.198 370.487C345.998 364.387 359.798 404.487 365.898 400.287L635.398 226.087C650.398 215.787 670.598 217.487 561.298 309.587L664.898 352.787C788.999 275.187 788.698 343.987 788.498 347.087C787.798 358.287 782.198 369.087 771.998 376.087L497.298 560.087C482.298 570.387 462.198 568.687 449.098 556.087Z" fill="#02024F"/>
<path d="M477.297 500.587L478.197 566.887C478.197 566.887 487.097 566.987 497.297 560.187C509.597 551.687 772.097 376.087 772.097 376.087C772.097 376.087 778.397 372.387 783.197 364.887C786.697 359.487 789.197 351.887 788.997 343.187C788.597 322.287 787.897 279.887 787.897 279.887C787.897 279.887 788.597 268.787 782.897 264.087C777.197 259.387 477.297 500.587 477.297 500.587Z" fill="#1243DD"/>
<path d="M447.697 490.588L354.197 403.688C336.897 386.888 339.297 358.388 359.197 344.788L641.697 167.188C656.697 156.888 676.897 158.588 689.897 171.288L775.597 251.688C792.897 268.488 790.497 296.988 770.597 310.588L495.897 494.688C480.897 504.988 460.697 503.288 447.697 490.588Z" fill="#1B30AF" stroke="#8094FF" stroke-miterlimit="10"/>
<path d="M459.098 476.49L382.698 402.39C377.698 397.59 375.498 391.19 375.698 384.89C375.798 383.39 375.598 380.39 375.298 371.89C374.998 363.79 388.898 362.89 389.498 361.49C391.198 357.79 477.898 303.49 477.898 303.49C486.998 297.29 499.198 298.29 507.098 305.99L588.798 374.49C589.898 375.49 589.298 395.99 589.198 397.89C588.698 404.69 586.598 411.59 580.498 415.79L488.298 478.99C479.198 485.19 466.998 484.19 459.098 476.49Z" fill="#02024F"/>
<path d="M476.199 442.987L476.699 482.987C476.699 482.987 482.099 482.987 488.299 478.887C495.799 473.787 580.499 415.587 580.499 415.587C580.499 415.587 584.299 413.387 587.199 408.787C589.299 405.487 590.199 401.387 590.099 396.087C589.899 386.687 589.999 385.487 589.899 377.587C589.799 375.087 476.199 442.987 476.199 442.987Z" fill="#000E84"/>
<path d="M458.5 459.688L382.1 385.588C371.6 375.388 373.5 362.988 385.5 354.788L478.4 296.388C487.5 290.188 502.5 291.988 510.4 299.588L582.8 363.188C593.3 373.388 591.8 390.588 579.8 398.788L487.7 462.188C478.6 468.388 466.4 467.388 458.5 459.688Z" fill="#1243DD" stroke="#8094FF" stroke-miterlimit="10"/>
<path d="M575.097 365.688C587.297 373.188 583.897 387.088 572.097 395.688L485.797 454.388C476.897 460.788 464.697 459.888 459.597 450.488L440.997 389.588C440.997 389.588 437.697 378.988 443.997 375.188C450.297 371.388 458.397 372.188 463.897 373.988C469.397 375.788 501.797 382.288 501.797 382.288L497.697 358.288C497.697 358.288 494.697 348.788 503.797 347.388C512.797 345.688 575.097 365.688 575.097 365.688Z" fill="#C7CED1"/>
<path d="M492.398 337.088C491.498 348.888 482.098 357.688 466.398 357.088C452.898 356.488 442.698 346.088 443.598 334.288C444.498 322.488 456.098 313.488 469.598 314.288C483.098 314.988 493.298 325.188 492.398 337.088Z" fill="#C7CED1"/>
<path d="M567.498 286.789C564.498 286.689 561.498 285.189 559.798 282.389C557.098 278.089 558.498 272.389 562.898 269.689L670.398 203.989C674.698 201.289 680.398 202.689 683.098 207.089C685.798 211.389 684.398 217.089 679.998 219.789L572.498 285.489C570.898 286.389 569.198 286.789 567.498 286.789Z" fill="#C7CED1"/>
<path d="M594.998 313.488C591.998 313.388 588.998 311.888 587.298 309.088C584.598 304.788 585.998 299.088 590.398 296.388L676.998 243.688C681.298 240.988 686.998 242.388 689.698 246.788C692.398 251.088 690.998 256.788 686.598 259.488L599.998 312.188C598.498 313.088 596.798 313.588 594.998 313.488Z" fill="#C7CED1"/>
<path d="M769.699 608.389C769.699 608.389 798.999 604.589 804.999 604.689C810.999 604.789 810.799 610.889 810.799 610.889L810.899 635.889C811.699 642.189 805.799 647.189 799.799 645.389L769.699 636.289V608.389Z" fill="black"/>
<path d="M671.901 617.19C672.901 625.19 676.401 633.09 682.701 639.99C699.901 658.79 730.901 662.39 751.901 648.19L769.601 636.29L769.701 608.19L769.101 606.99C769.101 606.99 747.701 618.79 731.901 619.29C716.101 619.79 709.501 621.59 696.401 613.29C683.301 604.99 679.501 600.29 679.501 600.29C679.501 600.29 674.501 593.89 673.601 592.19C672.701 590.49 671.301 586.09 671.301 586.09L671.901 617.19Z" fill="#1B30AF"/>
<path d="M671.902 617.188C672.902 625.188 676.402 633.088 682.702 639.988C689.902 647.888 699.502 653.088 709.802 655.388C710.502 641.488 710.902 636.488 711.402 623.188C711.802 611.388 708.602 620.988 696.502 613.188C683.502 604.888 679.602 600.188 679.602 600.188C679.602 600.188 674.602 593.788 673.702 592.088C672.802 590.388 671.402 585.988 671.402 585.988L671.902 617.188Z" fill="black"/>
<path d="M849.299 533.488C850.099 550.688 850.399 555.588 849.599 565.988C848.699 577.288 842.599 588.188 831.599 595.588L808.899 610.288L802.699 583.988C802.699 583.988 804.099 578.688 804.299 577.688C804.499 576.688 849.299 533.488 849.299 533.488Z" fill="#1B30AF"/>
<path d="M807.402 584.289L831.302 568.489C852.402 554.289 855.502 527.489 838.302 508.689C821.102 489.889 790.102 486.289 769.102 500.489L689.502 553.089C668.402 567.289 665.302 594.089 682.502 612.889C699.702 631.689 730.702 635.289 751.702 621.089L769.702 609.189L799.502 618.289C805.602 620.089 811.502 615.089 810.602 608.789L807.402 584.289Z" fill="#050A1A" stroke="#1B30AF" stroke-miterlimit="10"/>
<path d="M739.401 576.388C743.598 576.388 747.001 573.656 747.001 570.287C747.001 566.919 743.598 564.188 739.401 564.188C735.203 564.188 731.801 566.919 731.801 570.287C731.801 573.656 735.203 576.388 739.401 576.388Z" fill="#C7CED1"/>
<path d="M759.1 563.489C763.297 563.489 766.7 560.758 766.7 557.389C766.7 554.02 763.297 551.289 759.1 551.289C754.903 551.289 751.5 554.02 751.5 557.389C751.5 560.758 754.903 563.489 759.1 563.489Z" fill="#C7CED1"/>
<path d="M778.702 550.688C782.899 550.688 786.302 547.957 786.302 544.588C786.302 541.219 782.899 538.488 778.702 538.488C774.504 538.488 771.102 541.219 771.102 544.588C771.102 547.957 774.504 550.688 778.702 550.688Z" fill="#C7CED1"/>
<path d="M-118.7 885.89L-296.8 716.39C-298.3 714.99 -298.6 712.49 -297.4 710.79C-296.2 709.09 -293.9 708.79 -292.4 710.19L-117.9 876.49L363.4 570.09C365.1 569.09 368.6 567.09 369.5 569.09C369.7 569.59 369.5 572.39 369.5 573.39C369.5 574.89 368.5 576.09 367.2 576.89L-118.7 885.89Z" fill="black"/>
<path d="M227.699 661.487C227.099 661.387 226.399 661.187 225.899 660.687L74.699 531.287C73.099 529.987 72.799 527.487 73.999 525.787C75.199 524.087 77.399 523.787 78.999 525.087L230.099 654.487C231.699 655.787 231.999 658.287 230.799 659.987C230.099 661.087 228.899 661.587 227.699 661.487Z" fill="black"/>
<path d="M325.801 601.089C325.201 600.989 324.501 600.789 324.001 600.289L172.801 470.889C171.201 469.589 170.901 467.089 172.101 465.389C173.301 463.689 175.501 463.389 177.101 464.689L328.201 594.089C329.801 595.389 330.101 597.889 328.901 599.589C328.101 600.689 326.901 601.189 325.801 601.089Z" fill="black"/>
<path d="M72.4012 765.391C71.8012 765.291 71.1012 765.091 70.6012 764.591L12.3012 714.991C10.7012 713.691 13.0012 710.791 14.2012 709.091C15.4012 707.391 21.6012 713.191 23.2012 714.491L74.8012 758.291C76.4012 759.591 76.7012 762.091 75.5012 763.791C74.8012 764.991 73.6012 765.491 72.4012 765.391Z" fill="black"/>
<path d="M-117.802 881.487L-295.902 711.987C-297.402 710.587 -297.702 708.087 -296.502 706.387C-295.302 704.687 -293.002 704.387 -291.502 705.787L-117.002 872.087L364.298 565.687C365.998 564.687 368.198 565.487 369.098 567.387C369.998 569.287 369.298 571.687 367.598 572.687L-117.802 881.487Z" fill="#1B30AF"/>
<path d="M229 657.488C228.4 657.388 227.7 657.188 227.2 656.688L75.9998 527.288C74.3998 525.988 74.0997 523.488 75.2997 521.788C76.4997 520.088 76.2997 517.588 77.8997 518.888L231.4 650.488C233 651.788 233.3 654.288 232.1 655.988C231.4 657.088 230.2 657.588 229 657.488Z" fill="#1B30AF"/>
<path d="M325.398 595.987C324.798 595.887 324.098 595.687 323.598 595.187L172.398 465.787C170.798 464.487 170.498 461.987 171.698 460.287C172.898 458.587 175.098 458.287 176.698 459.587L327.798 588.987C329.398 590.287 329.698 592.787 328.498 594.487C327.698 595.587 326.498 596.087 325.398 595.987Z" fill="#1B30AF"/>
<path d="M72.9998 757.288C72.3998 757.188 71.6997 756.988 71.1997 756.488L21.4997 714.988C19.8997 713.688 19.5997 711.188 20.7997 709.488C21.9997 707.788 24.1997 707.388 25.7997 708.688L75.4998 750.188C77.0998 751.488 77.3997 753.988 76.1997 755.688C75.3997 756.888 74.0998 757.488 72.9998 757.288Z" fill="#1B30AF"/>
<path d="M234.901 373.387L229.301 458.187C229.301 458.187 229.501 469.487 218.001 470.387C206.601 471.287 138.601 482.387 112.501 496.087C86.4005 509.787 74.7005 515.487 75.0005 538.387C75.3005 561.287 56.0005 475.787 66.2005 444.587C76.4005 413.387 126.501 393.887 159.801 385.587C193.101 377.287 234.901 373.387 234.901 373.387Z" fill="#000E84"/>
<path d="M79.9 579.887L76 665.087C76 665.087 76.2 704.287 30.2 713.087C-15.8 721.887 -74.8 712.287 -111 719.387C-147.2 726.487 -190 789.587 -195 816.887L-192.2 726.587C-192.2 726.587 -187.1 658.887 -147.4 634.487C-107.7 610.087 -44 618.487 -21.6 619.887C0.799988 621.287 57.6 626.187 79.9 579.887Z" fill="#000E84"/>
<path d="M56.9977 463.289L53.5977 578.189C53.5977 578.189 54.3977 595.889 60.8977 604.189C67.4977 612.489 74.3977 573.289 74.7977 558.589C75.1977 543.789 63.8977 467.989 63.9977 467.289C63.9977 466.489 56.9977 463.289 56.9977 463.289Z" fill="#111224"/>
<path d="M-196.102 730.588C-196.602 730.588 -197.002 730.488 -197.502 730.388C-200.702 729.388 -202.602 725.788 -201.702 722.288C-201.202 720.488 -190.102 678.888 -179.102 659.988C-161.702 630.188 -132.202 615.088 -89.1022 613.888C-79.2022 613.588 -68.6022 613.588 -57.3022 613.488C-27.3022 613.388 6.59784 613.188 38.7978 608.388C49.8978 606.688 57.6978 602.388 62.6978 595.088C73.7979 578.688 69.1978 548.888 65.8978 527.088C65.3978 523.788 64.3979 519.588 63.2979 514.688C56.8979 486.188 44.7979 433.388 89.6978 404.988C138.598 374.088 224.798 367.488 228.398 367.288C231.798 367.088 234.598 369.788 234.798 373.388C234.998 376.988 232.398 380.188 229.098 380.388C228.198 380.488 142.098 386.988 95.6978 416.388C58.6978 439.788 68.4978 482.888 74.9978 511.288C76.1978 516.488 77.1978 520.888 77.7979 524.688C81.4979 548.788 86.6978 581.788 72.3978 602.688C65.4978 612.888 54.6978 619.188 40.2978 621.288C7.29784 626.288 -27.1022 626.388 -57.5022 626.588C-68.7021 626.688 -79.2021 626.688 -89.0022 626.988C-128.302 628.088 -153.702 640.788 -169.002 666.888C-179.102 684.188 -190.102 725.288 -190.202 725.788C-190.702 728.788 -193.302 730.688 -196.102 730.588Z" fill="#1B30AF"/>
<path d="M194.198 474.487L184.098 475.688V386.987L194.198 385.688V474.487Z" fill="#1B30AF"/>
<path d="M188.899 389.787C194.533 389.787 199.099 386.967 199.099 383.487C199.099 380.008 194.533 377.188 188.899 377.188C183.266 377.188 178.699 380.008 178.699 383.487C178.699 386.967 183.266 389.787 188.899 389.787Z" fill="black"/>
<path d="M188.899 387.889C194.533 387.889 199.099 385.068 199.099 381.589C199.099 378.11 194.533 375.289 188.899 375.289C183.266 375.289 178.699 378.11 178.699 381.589C178.699 385.068 183.266 387.889 188.899 387.889Z" fill="#C7CED1"/>
<path d="M31.2992 713.487L21.1992 714.688V625.987L31.2992 624.688V713.487Z" fill="#1B30AF"/>
<path d="M25.8992 628.787C31.5325 628.787 36.0992 625.967 36.0992 622.487C36.0992 619.008 31.5325 616.188 25.8992 616.188C20.2659 616.188 15.6992 619.008 15.6992 622.487C15.6992 625.967 20.2659 628.787 25.8992 628.787Z" fill="black"/>
<path d="M25.8992 626.889C31.5325 626.889 36.0992 624.068 36.0992 620.589C36.0992 617.11 31.5325 614.289 25.8992 614.289C20.2659 614.289 15.6992 617.11 15.6992 620.589C15.6992 624.068 20.2659 626.889 25.8992 626.889Z" fill="#C7CED1"/>
<path d="M79.0031 519.786L77.7031 522.986C77.7031 522.986 73.4031 504.786 71.9031 497.586C70.4031 490.386 68.7031 483.586 68.7031 483.586L68.8031 459.286L79.2031 458.086L79.0031 519.786Z" fill="#1B30AF"/>
<path d="M73.8016 462.084C79.4349 462.084 84.0016 459.264 84.0016 455.784C84.0016 452.305 79.4349 449.484 73.8016 449.484C68.1683 449.484 63.6016 452.305 63.6016 455.784C63.6016 459.264 68.1683 462.084 73.8016 462.084Z" fill="black"/>
<path d="M73.8016 460.186C79.4349 460.186 84.0016 457.365 84.0016 453.886C84.0016 450.407 79.4349 447.586 73.8016 447.586C68.1683 447.586 63.6016 450.407 63.6016 453.886C63.6016 457.365 68.1683 460.186 73.8016 460.186Z" fill="#C7CED1"/>
<path d="M1567.8 163.889L1409.5 268.589C1382.3 286.389 1343.2 283.989 1322.2 263.189L1147.7 88.9889C1139.1 80.3889 1134.9 70.0889 1134.8 59.5889C1134.8 57.6889 1135.3 25.7889 1135.5 23.8889C1137.3 10.8889 1145.1 28.1889 1159.1 18.9889L1315.4 -74.5111C1342.6 -92.3111 1381.7 -89.9111 1402.7 -69.1111L1579.2 93.9889C1586 100.789 1590.9 81.3889 1592.3 89.5889C1592.7 91.7889 1592.1 121.389 1592.1 123.589C1592.2 138.389 1583.8 153.489 1567.8 163.889Z" fill="#02024F"/>
<path d="M1592.5 88.4883L1592.4 122.788C1592.4 122.788 1593.5 145.888 1580.4 155.688C1567.3 165.588 1409.4 268.688 1409.4 268.688C1409.4 268.688 1394.8 280.588 1371.4 280.388L1371.7 245.688L1559.7 101.488L1592.5 88.4883Z" fill="#000E84"/>
<path d="M1568.4 129.588L1410.1 234.288C1382.9 252.088 1343.8 249.688 1322.8 228.888L1148.2 54.5882C1127.2 33.7882 1132.3 2.48816 1159.6 -15.3118L1315.9 -108.812C1343.1 -126.612 1382.2 -124.212 1403.2 -103.412L1579.8 59.6882C1600.7 80.3882 1595.7 111.688 1568.4 129.588Z" fill="#1B30AF" stroke="#8094FF" stroke-miterlimit="10"/>
<path d="M1391.7 -31.2129L1249.6 51.5871C1239.3 57.5871 1223.8 55.5871 1215.2 46.9871L1194.8 26.8871C1186.1 18.2871 1187.5 6.4871 1197.8 0.487099L1339.9 -82.3129C1350.2 -88.3129 1365.7 -86.3129 1374.3 -77.7129L1394.7 -57.6129C1403.4 -49.0129 1402 -37.2129 1391.7 -31.2129Z" fill="#02024F"/>
<path d="M1392.2 -35.5137L1250.1 47.2863C1239.8 53.2863 1224.3 51.2863 1215.7 42.6863L1195.3 22.5863C1186.6 13.9863 1188 2.18631 1198.3 -3.81369L1340.4 -86.6137C1350.7 -92.6137 1366.2 -90.6137 1374.8 -82.0137L1395.2 -61.9137C1403.9 -53.4137 1402.5 -41.6137 1392.2 -35.5137Z" fill="#1B30AF" stroke="#8094FF" stroke-miterlimit="10"/>
<path d="M1281.6 86.8876C1280.3 86.9876 1279 86.3876 1278.4 85.1876C1277.5 83.4876 1278.2 81.2876 1280 80.2876L1377.6 24.3876C1379.3 23.3876 1381.5 23.9876 1382.4 25.6876C1383.3 27.3876 1382.6 29.5876 1380.8 30.5876L1283.2 86.4876C1282.7 86.6876 1282.1 86.7876 1281.6 86.8876Z" fill="#8090D7"/>
<path d="M1304.9 112.387C1303.6 112.487 1302.3 111.887 1301.7 110.687C1300.8 108.987 1301.5 106.787 1303.2 105.787L1400.1 48.6875C1401.8 47.6875 1404 48.1875 1404.9 49.8875C1405.8 51.5875 1405.1 53.7875 1403.4 54.7875L1306.5 111.887C1306 112.187 1305.5 112.387 1304.9 112.387Z" fill="#8090D7"/>
<path d="M1332.7 137.59C1331.4 137.69 1330.1 137.19 1329.4 135.99C1328.5 134.29 1329.1 132.09 1330.8 131.09L1426.7 72.19C1428.4 71.09 1430.6 71.5901 1431.5 73.2901C1432.4 74.9901 1431.8 77.19 1430.1 78.19L1334.2 137.09C1333.8 137.39 1333.3 137.59 1332.7 137.59Z" fill="#8090D7"/>
<path d="M1356.5 161.688C1355.2 161.788 1353.9 161.288 1353.2 160.088C1352.3 158.388 1352.9 156.188 1354.6 155.188L1450.5 96.2877C1452.2 95.1877 1454.4 95.6877 1455.3 97.3877C1456.2 99.0877 1455.6 101.288 1453.9 102.288L1358 161.188C1357.6 161.488 1357.1 161.688 1356.5 161.688Z" fill="#8090D7"/>
<path d="M1265.55 95.5194C1267.76 95.0656 1269.27 93.2503 1268.9 91.4647C1268.54 89.6792 1266.44 88.5996 1264.22 89.0534C1262.01 89.5071 1260.5 91.3225 1260.87 93.108C1261.23 94.8936 1263.33 95.9732 1265.55 95.5194Z" fill="#C7CED1"/>
<path d="M1290.55 120.519C1292.76 120.066 1294.27 118.25 1293.9 116.465C1293.54 114.679 1291.44 113.6 1289.22 114.053C1287.01 114.507 1285.5 116.322 1285.87 118.108C1286.23 119.894 1288.33 120.973 1290.55 120.519Z" fill="#C7CED1"/>
<path d="M1316.35 147.219C1318.57 146.765 1320.07 144.95 1319.7 143.164C1319.34 141.378 1317.24 140.299 1315.02 140.753C1312.81 141.206 1311.3 143.022 1311.67 144.807C1312.03 146.593 1314.13 147.672 1316.35 147.219Z" fill="#C7CED1"/>
<path d="M1341.35 172.117C1343.57 171.663 1345.07 169.848 1344.7 168.062C1344.34 166.277 1342.24 165.197 1340.02 165.651C1337.81 166.105 1336.3 167.92 1336.67 169.706C1337.03 171.491 1339.13 172.571 1341.35 172.117Z" fill="#C7CED1"/>
<path d="M1233.4 22.2899C1232.1 22.3899 1230.8 21.7899 1230.2 20.5899C1229.3 18.8899 1230 16.6899 1231.8 15.6899L1329.4 -40.2101C1331.1 -41.2101 1333.3 -40.6101 1334.2 -38.9101C1335.1 -37.2101 1334.4 -35.0101 1332.6 -34.0101L1235 21.8899C1234.5 22.0899 1233.9 22.2899 1233.4 22.2899Z" fill="#C7CED1"/>
<path d="M912.6 49.7864C915 57.9864 919.1 44.1864 918.8 52.3864C918.7 54.5864 914.9 78.4864 914.7 80.5864C914.2 85.1864 912.7 90.6864 911.4 95.0864C902.5 124.886 877.4 149.486 841.7 158.786C788.9 172.486 735 145.886 721.4 99.3864C718.5 89.5864 717.7 79.6864 718.6 69.9864C718.8 67.8864 722.1 38.6864 722.5 36.5864C728.5 2.98636 753.1 0.486361 792.3 -9.71364C845.1 -23.3136 898.9 3.28636 912.6 49.7864Z" fill="#02024F"/>
<path d="M823.802 123.385L798.402 120.585L789.402 159.885C789.402 159.885 839.002 172.785 879.502 142.685C911.802 118.585 915.802 79.8852 916.802 70.9852C917.802 62.0852 918.102 49.7852 918.102 49.7852L823.802 123.385Z" fill="#000E84"/>
<path d="M830.04 131.829C884.181 124.19 922.591 79.1627 915.832 31.2567C909.074 -16.6493 859.705 -49.2928 805.565 -41.6545C751.425 -34.0163 713.014 11.0113 719.773 58.9173C726.532 106.823 775.9 139.467 830.04 131.829Z" fill="#1B30AF" stroke="#8094FF" stroke-miterlimit="10.0001"/>
<path d="M854.501 47.7855L818.001 70.6855C807.601 77.1855 793.701 74.4855 786.801 64.7855C779.901 55.0855 782.701 41.8855 793.101 35.3855L829.601 12.4855C840.001 5.9855 853.901 8.6855 860.801 18.3855C867.701 28.0855 864.901 41.2855 854.501 47.7855Z" fill="black"/>
<path d="M854.5 47.7869L819.7 69.5869C809.3 76.0869 797.4 72.6869 791.6 65.2869L790.4 63.5869C783.5 53.8869 787.2 42.7869 797.6 36.2869L830.7 14.4869C841.1 7.98689 853.9 8.58689 860.8 18.2869C867.7 28.0869 864.9 41.2869 854.5 47.7869Z" fill="#000E84"/>
<path d="M868.228 29.4819C868.616 17.5586 857.743 7.52876 843.943 7.0798C830.143 6.63085 818.641 15.9328 818.253 27.8561C817.865 39.7795 828.738 49.8093 842.538 50.2582C856.338 50.7072 867.84 41.4053 868.228 29.4819Z" fill="black"/>
<path d="M868.091 28.06C868.479 16.1366 857.606 6.10688 843.806 5.65793C830.006 5.20898 818.504 14.5108 818.116 26.4342C817.729 38.3576 828.601 48.3874 842.402 48.8363C856.202 49.2853 867.704 39.9834 868.091 28.06Z" fill="#C7CED1"/>
<path d="M585.7 690.49L420.8 800.79C397.7 816.29 363.8 811.39 345.2 789.89C338.5 782.19 334.7 773.39 333.6 764.59C333.4 763.39 329.9 741.29 329.9 740.09C329.4 725.59 339.6 732.09 353.3 722.99L518.2 612.69C541.3 597.19 575.2 602.09 593.8 623.59C598.5 629.09 599 615.59 600.9 621.79C601.2 622.89 604.4 646.29 604.6 647.49C607.1 666.89 601.8 679.69 585.7 690.49Z" fill="black"/>
<path d="M399.398 783.49L402.298 808.39C402.298 808.39 411.898 807.59 424.998 798.69C438.298 789.79 588.798 688.99 588.798 688.99C588.798 688.99 606.098 677.59 605.598 661.49C605.098 645.39 605.098 645.39 605.098 645.39L600.498 624.09L399.398 783.49Z" fill="#000E84"/>
<path d="M581.399 665.789L409.099 782.489C390.299 795.089 362.699 791.089 347.499 773.589L334.899 759.189C319.699 741.689 322.599 717.289 341.399 704.689L512.299 589.589C522.299 582.889 537.299 576.589 551.599 577.389C564.099 578.089 573.699 583.289 583.399 592.889L595.999 607.289C612.199 629.189 600.299 653.289 581.399 665.789Z" fill="#1B30AF" stroke="#8094FF" stroke-miterlimit="10"/>
<path d="M415.154 739.345C418.065 726.641 408.729 713.663 394.302 710.358C379.876 707.052 365.821 714.672 362.911 727.376C360 740.08 369.336 753.058 383.763 756.363C398.189 759.668 412.244 752.049 415.154 739.345Z" fill="#C7CED1"/>
<path d="M491.686 687.353C494.596 674.649 485.26 661.67 470.834 658.365C456.407 655.06 442.352 662.68 439.442 675.384C436.531 688.088 445.867 701.066 460.294 704.371C474.721 707.676 488.775 700.057 491.686 687.353Z" fill="#C7CED1"/>
<path d="M565.014 639.396C567.924 626.692 558.589 613.713 544.162 610.408C529.735 607.103 515.68 614.723 512.77 627.427C509.859 640.131 519.195 653.109 533.622 656.414C548.049 659.719 562.103 652.1 565.014 639.396Z" fill="#C7CED1"/>
<path d="M408.899 733.489L389.399 747.189C388.799 747.589 387.899 747.589 387.399 747.089L371.199 732.889C370.699 732.389 370.699 731.689 371.299 731.289L390.799 717.589C391.399 717.189 392.299 717.189 392.799 717.689L408.999 731.889C409.499 732.389 409.399 733.089 408.899 733.489Z" fill="#1243DD"/>
<path d="M402.098 731.289L387.298 741.689C386.698 742.089 385.798 742.089 385.298 741.589L375.598 733.089C375.098 732.589 375.098 731.889 375.698 731.489L390.498 721.089C391.098 720.689 391.998 720.689 392.498 721.189L402.198 729.689C402.698 730.089 402.598 730.789 402.098 731.289Z" fill="#C7CED1"/>
<path d="M467.4 670.091C467.4 670.091 455.8 671.591 453.1 675.791C450.4 679.991 455.7 685.291 461.5 682.491C467.2 679.791 469.5 672.591 469.5 672.591C469.5 672.591 470.4 668.891 467.4 670.091Z" fill="#1243DD"/>
<path d="M458.699 688.591L476.199 677.391C476.199 677.391 480.599 683.391 473.799 688.691C467.399 693.591 460.399 690.491 458.699 688.591Z" fill="#1243DD"/>
<path d="M541.301 621.488L542.801 623.788C543.501 624.888 544.801 625.588 546.101 625.788L549.101 626.088C552.601 626.488 554.301 630.188 552.001 632.388L550.001 634.288C549.101 635.188 548.801 636.388 549.101 637.588L549.801 640.188C550.701 643.288 547.301 645.688 544.101 644.288L541.401 643.088C540.101 642.588 538.701 642.588 537.501 643.188L535.001 644.488C532.101 645.988 528.201 643.788 528.501 640.688L528.801 638.088C528.901 636.888 528.401 635.588 527.301 634.788L525.001 632.988C522.301 630.888 523.301 627.088 526.701 626.488L529.601 626.088C531.001 625.888 532.101 625.088 532.601 623.988L533.701 621.588C535.101 618.788 539.501 618.688 541.301 621.488Z" fill="#1243DD"/>
<path d="M907 720.486C929.3 746.286 965.1 751.886 995.4 730.186L1093.6 661.485C1110.2 649.585 1118.4 634.486 1120.4 615.886C1120.8 611.886 1122.8 589.986 1121.8 586.386C1119.9 578.886 1111.3 576.786 1106.6 570.186C1085.6 540.886 1044 534.686 1013.7 556.386L919.4 623.985C912.9 628.685 900.9 631.285 896.5 637.485C893.8 641.285 894.1 654.786 893.8 666.686C892.8 707.486 907 720.486 907 720.486Z" fill="#1B30AF"/>
<path d="M908.8 686.687L913.2 691.787C940.1 716.187 974.7 721.287 1001 702.387L1098.9 632.287C1125.3 613.387 1129.7 578.987 1108.7 555.387L1100.2 545.887C1079.2 522.287 1040.8 518.487 1014.5 537.387L916.7 607.587C890.3 626.487 885.6 659.687 908.8 686.687Z" fill="#050A1A" stroke="#1B30AF" stroke-miterlimit="10"/>
<path d="M1109.24 597.995C1114.08 568.789 1092.73 540.931 1061.56 535.773C1030.39 530.614 1001.21 550.108 996.374 579.314C991.54 608.519 1012.89 636.377 1044.05 641.536C1075.22 646.695 1104.41 627.201 1109.24 597.995Z" fill="#10098B"/>
<path d="M1108.43 594.736C1112.98 567.274 1091.84 540.902 1061.22 535.834C1030.59 530.765 1002.08 548.919 997.539 576.381C992.993 603.843 1014.13 630.214 1044.76 635.283C1075.38 640.351 1103.89 622.198 1108.43 594.736Z" fill="#1B30AF" stroke="#8094FF" stroke-miterlimit="10.0002"/>
<path d="M953.299 672.89C950.599 673.19 947.899 672.79 945.299 671.69C942.699 670.59 940.399 668.99 938.499 666.69C936.499 664.39 935.299 661.99 934.799 659.39C934.299 656.79 934.499 654.39 935.499 652.09C936.499 649.79 938.099 647.79 940.399 646.09C942.699 644.49 945.199 643.49 947.899 643.19C950.599 642.89 953.299 643.29 955.899 644.39C958.499 645.49 960.799 647.09 962.699 649.39C964.599 651.69 965.899 654.09 966.399 656.59C966.899 659.19 966.699 661.59 965.699 663.99C964.699 666.29 963.099 668.29 960.799 669.99C958.499 671.59 955.999 672.59 953.299 672.89ZM946.499 669.19C948.599 670.09 950.799 670.49 952.999 670.29C955.199 670.09 957.199 669.39 959.099 667.99C960.899 666.69 962.199 665.09 962.999 663.09C963.699 661.19 963.899 659.19 963.399 656.99C962.899 654.89 961.899 652.89 960.299 650.99C958.699 649.09 956.799 647.69 954.599 646.79C952.499 645.89 950.299 645.49 948.099 645.69C945.899 645.89 943.799 646.69 941.999 647.99C940.099 649.29 938.899 650.89 938.099 652.79C937.399 654.69 937.199 656.69 937.699 658.79C938.199 660.89 939.199 662.89 940.899 664.79C942.499 666.89 944.399 668.29 946.499 669.19Z" fill="#C7CED1"/>
<path d="M957.199 634.489L960.399 632.189L986.399 641.289C988.699 642.089 990.499 642.689 991.699 643.189C990.799 642.189 989.599 640.889 987.999 639.089L973.699 622.489L976.099 620.789L996.099 644.089L992.899 646.389L966.799 637.289C964.499 636.489 962.799 635.889 961.499 635.289C962.399 636.289 963.599 637.589 965.099 639.389L979.399 655.989L976.999 657.689L957.199 634.489Z" fill="#C7CED1"/>
<path d="M1330.7 806.786L1421.1 740.786C1433.1 732.086 1443.8 721.486 1446.2 709.086C1447 705.086 1448.9 672.487 1448.6 668.387C1447.8 654.287 1436 667.387 1423.4 655.687C1395.7 629.887 1349.7 626.187 1320.6 647.387L1230.2 713.387C1222 719.387 1218.2 701.986 1214.5 709.986C1213.3 712.686 1216.3 742.186 1216.7 744.986C1218.2 756.286 1212.7 776.587 1230.1 792.687L1235.3 798.786C1263 824.586 1301.7 827.986 1330.7 806.786Z" fill="#10098B"/>
<path d="M1285.6 780.885L1284.8 820.085C1284.8 820.085 1259.8 822.085 1233.1 801.785C1224.9 795.585 1219.2 785.985 1215.9 779.385C1213.8 775.185 1212.9 727.185 1213.2 719.285C1213.8 703.885 1214.5 709.885 1214.5 709.885L1285.6 780.885Z" fill="black"/>
<path d="M1336.6 769.786L1427 703.786C1456 682.586 1457.1 644.487 1429.3 618.687C1401.6 592.887 1355.6 589.187 1326.5 610.387L1236.1 676.387C1207.1 697.587 1206 735.686 1233.8 761.486C1261.6 787.186 1307.6 790.986 1336.6 769.786Z" fill="#1B30AF" stroke="#8094FF" stroke-miterlimit="10"/>
<path d="M1258.7 734.087L1309.4 737.487C1310.7 737.587 1311.9 736.587 1312 735.287C1312.1 733.987 1311.1 732.787 1309.8 732.687L1263.7 729.587L1265.3 694.487C1265.4 693.187 1264.3 692.087 1263 691.987C1261.7 691.887 1260.6 692.987 1260.5 694.287L1258.7 734.087Z" fill="#C7CED1"/>
<path d="M1393.3 675.888C1393.4 675.888 1393.5 675.888 1393.6 675.888C1394.9 675.988 1396 674.988 1396.1 673.588L1398.1 633.888L1347.4 630.288C1346.1 630.188 1344.9 631.188 1344.8 632.488C1344.7 633.788 1345.7 634.988 1347 635.088L1393 638.388L1391.2 673.488C1391.2 674.688 1392.1 675.688 1393.3 675.888Z" fill="#C7CED1"/>
<path d="M2027.2 633.585C2013.5 664.385 1969.4 668.485 1948.5 647.385L1670 381.485C1659.3 371.185 1658.9 364.085 1657.7 345.985C1657.6 344.085 1656.4 312.185 1656.8 310.385C1658.8 301.885 1663.5 320.885 1670.1 314.085C1689 294.885 1719.4 293.985 1738.2 311.985L2017.3 578.785C2024.8 585.985 2030.4 570.685 2031.9 580.285C2032.2 581.985 2033 595.185 2033.1 596.985C2033.3 621.685 2027.2 633.585 2027.2 633.585Z" fill="#000E84"/>
<path d="M2016.4 614.386C1996.2 630.486 1964.8 629.086 1946.2 611.186L1669.7 346.886C1651.1 328.986 1652.4 301.386 1672.6 285.286C1692.8 269.186 1724.2 270.586 1742.8 288.486L2019.3 552.786C2037.9 570.686 2036.6 598.186 2016.4 614.386Z" fill="#1B30AF" stroke="#1B30AF" stroke-miterlimit="10"/>
<path d="M1710.27 345.727C1729.7 342.728 1743.36 326.758 1740.78 310.056C1738.21 293.354 1720.36 282.245 1700.93 285.243C1681.5 288.241 1667.84 304.212 1670.42 320.914C1672.99 337.616 1690.84 348.725 1710.27 345.727Z" fill="#C7CED1"/>
<path d="M1706.96 324.279C1712.58 323.411 1716.53 318.77 1715.78 313.912C1715.03 309.054 1709.86 305.82 1704.24 306.687C1698.62 307.555 1694.67 312.196 1695.42 317.054C1696.17 321.912 1701.33 325.146 1706.96 324.279Z" fill="#1243DD"/>
<path d="M1762.56 400.43C1781.99 397.432 1795.66 381.461 1793.08 364.759C1790.5 348.057 1772.66 336.948 1753.23 339.946C1733.8 342.944 1720.14 358.915 1722.71 375.617C1725.29 392.319 1743.13 403.428 1762.56 400.43Z" fill="#1243DD" stroke="#8094FF" stroke-miterlimit="10"/>
<path d="M1821.06 451.828C1840.49 448.83 1854.16 432.86 1851.58 416.157C1849 399.455 1831.16 388.346 1811.73 391.344C1792.3 394.343 1778.64 410.313 1781.21 427.015C1783.79 443.718 1801.63 454.827 1821.06 451.828Z" fill="#C7CED1"/>
<path d="M1875.26 505.828C1894.69 502.83 1908.36 486.86 1905.78 470.157C1903.2 453.455 1885.36 442.346 1865.93 445.344C1846.5 448.343 1832.84 464.313 1835.41 481.015C1837.99 497.718 1855.83 508.827 1875.26 505.828Z" fill="#1243DD" stroke="#8094FF" stroke-miterlimit="10"/>
<path d="M1931.97 559.727C1951.4 556.728 1965.06 540.758 1962.48 524.056C1959.91 507.354 1942.06 496.245 1922.63 499.243C1903.2 502.241 1889.54 518.212 1892.12 534.914C1894.69 551.616 1912.53 562.725 1931.97 559.727Z" fill="#C7CED1"/>
<path d="M1774.1 365.387C1771.4 370.387 1765.3 374.488 1758.9 374.688C1749.9 374.988 1742.6 368.488 1742.6 360.188C1740.8 365.387 1741.2 369.188 1741.2 369.188C1741.1 377.487 1748.4 383.987 1757.5 383.688C1766.5 383.388 1773.9 376.387 1774 368.087C1774 368.187 1774.1 365.387 1774.1 365.387Z" fill="#C7CED1"/>
<path d="M1764.7 364.487L1759.9 363.688L1756.3 367.188L1755.8 362.287L1751.5 360.188L1756 357.987L1756.9 353.188L1760.2 356.688L1765 355.887L1762.6 360.188L1764.7 364.487Z" fill="#C7CED1"/>
<path d="M1825 416.186L1820 419.986C1819.1 420.686 1817.8 420.686 1817 419.886L1811.7 414.786C1810.7 413.786 1810.8 412.186 1812 411.286L1817 407.486C1817.9 406.786 1819.2 406.786 1820 407.586L1825.3 412.686C1826.3 413.686 1826.2 415.286 1825 416.186Z" fill="#1243DD"/>
<path d="M1831.9 422.784L1826.9 426.584C1826 427.284 1824.7 427.284 1823.9 426.484L1822 424.684C1821 423.684 1821.1 422.084 1822.3 421.184L1827.3 417.384C1828.2 416.684 1829.5 416.684 1830.3 417.484L1832.2 419.284C1833.2 420.184 1833.1 421.884 1831.9 422.784Z" fill="#1243DD"/>
<path d="M1820.4 431.386L1815.4 435.186C1814.5 435.886 1813.2 435.886 1812.4 435.086L1800.4 423.286C1799.4 422.286 1799.6 420.686 1800.7 419.786L1805.7 415.986C1806.6 415.286 1807.9 415.286 1808.7 416.086L1820.7 427.886C1821.7 428.786 1821.6 430.486 1820.4 431.386Z" fill="#1243DD"/>
<path d="M1887.8 483.788L1877.9 491.788C1876.1 493.288 1873.7 493.388 1872.4 492.188L1863.9 483.988C1862.3 482.388 1862.9 479.388 1865.1 477.588L1875 469.588C1876.8 468.088 1879.2 467.988 1880.5 469.188L1889 477.388C1890.6 478.888 1890 481.888 1887.8 483.788Z" fill="#C7CED1"/>
<path d="M1869.2 482.388C1868.4 482.388 1867.7 482.188 1867.2 481.688L1862 476.688C1861.4 476.088 1861.1 475.388 1861.2 474.488C1861.3 473.388 1861.9 472.388 1862.8 471.588L1868.7 466.888C1870.1 465.688 1872 465.688 1873.1 466.688L1878.3 471.688C1878.9 472.288 1879.2 472.988 1879.1 473.888C1879 474.988 1878.4 475.988 1877.5 476.788L1871.6 481.488C1870.8 481.988 1870 482.288 1869.2 482.388ZM1871 467.588C1870.6 467.588 1870.1 467.788 1869.7 468.088L1863.8 472.788C1863.2 473.188 1862.9 473.888 1862.9 474.488C1862.9 474.788 1862.9 475.188 1863.2 475.488L1868.4 480.488C1868.9 480.988 1869.8 480.888 1870.6 480.288L1876.5 475.588C1877.1 475.188 1877.4 474.488 1877.4 473.888C1877.4 473.588 1877.4 473.188 1877.1 472.888L1871.9 467.888C1871.7 467.688 1871.3 467.588 1871 467.588Z" fill="#C7CED1"/>
<path d="M1555.5 293.488L1403.8 393.588C1389.9 402.688 1370.1 401.488 1359.4 390.888L1270.6 302.188C1259.9 291.588 1262.5 275.688 1276.4 266.588L1427.1 172.188C1441 163.088 1460.8 164.288 1471.5 174.888L1561.4 257.888C1572 268.488 1569.4 284.388 1555.5 293.488Z" stroke="#4863FF" stroke-miterlimit="10"/>
<path d="M1554.6 318.289L1402.9 418.389C1389 427.489 1369.2 426.289 1358.5 415.689L1269.7 326.989C1259 316.389 1261.6 300.489 1275.5 291.389L1426.2 196.989C1440.1 187.889 1459.9 189.089 1470.6 199.689L1560.5 282.689C1571 293.289 1568.4 309.189 1554.6 318.289Z" stroke="#4863FF" stroke-miterlimit="10"/>
<path d="M284.298 321.188C318.209 321.188 345.698 299.877 345.698 273.588C345.698 247.3 318.209 225.988 284.298 225.988C250.388 225.988 222.898 247.3 222.898 273.588C222.898 299.877 250.388 321.188 284.298 321.188Z" stroke="#4863FF" stroke-miterlimit="10"/>
<path d="M344.997 281.387C346.197 285.087 347.097 290.687 347.097 294.687C347.097 320.987 319.597 342.287 285.697 342.287C251.797 342.287 224.297 320.987 224.297 294.687C224.297 292.387 224.897 288.187 225.297 285.987" stroke="#4863FF" stroke-miterlimit="10"/>
<path d="M274.597 278.688C284.704 278.688 292.897 272.376 292.897 264.588C292.897 256.801 284.704 250.488 274.597 250.488C264.49 250.488 256.297 256.801 256.297 264.588C256.297 272.376 264.49 278.688 274.597 278.688Z" stroke="#4863FF" stroke-miterlimit="10"/>
<path d="M343.898 285.688C337.498 278.288 326.498 273.488 314.198 273.488C294.398 273.488 278.398 285.888 278.398 301.288C278.398 309.388 282.098 315.988 289.298 321.088" stroke="#4863FF" stroke-miterlimit="10"/>
<path d="M1131.1 487.089L1008.8 573.089L920.602 487.289L1042.9 401.289L1131.1 487.089Z" stroke="#4863FF" stroke-miterlimit="10"/>
<path d="M1131.4 487.791V503.291L1010 589.591L921.803 503.791L920.703 487.391" stroke="#4863FF" stroke-miterlimit="10"/>
<path d="M1060.5 418.488L938.5 504.288" stroke="#4863FF" stroke-miterlimit="10"/>
<path d="M1037.3 527.389C1036.7 527.789 1035.9 527.989 1035.1 527.989L992.703 525.589L997.903 491.589C998.103 490.189 999.703 489.189 1001.4 489.389C1003.1 489.589 1004.4 490.989 1004.2 492.389L999.903 520.689L1035.3 522.689C1037.1 522.789 1038.4 524.089 1038.4 525.489C1038.3 526.289 1037.9 526.889 1037.3 527.389Z" stroke="#4863FF" stroke-miterlimit="10"/>
<path d="M1076.3 501.889C1075.6 502.389 1074.7 502.589 1073.8 502.489C1072.1 502.289 1070.8 500.889 1071 499.489L1075.3 471.189L1039.9 469.189C1038.1 469.089 1036.8 467.789 1036.8 466.389C1036.8 464.889 1038.3 463.789 1040.1 463.889L1082.5 466.289L1077.3 500.289C1077.2 500.989 1076.8 501.489 1076.3 501.889Z" stroke="#4863FF" stroke-miterlimit="10"/>
<path d="M1052.9 529.291C1052.6 529.491 1052.4 529.591 1052 529.691C1050.4 530.191 1048.5 529.491 1047.8 528.091L1019.3 470.491C1018.6 469.091 1019.4 467.591 1021 467.091C1022.6 466.591 1024.5 467.291 1025.2 468.691L1053.7 526.291C1054.3 527.391 1053.9 528.591 1052.9 529.291Z" stroke="#4863FF" stroke-miterlimit="10"/>
<path d="M940.956 489.607C941.155 487.796 939.536 486.132 937.34 485.891C935.144 485.65 933.203 486.924 933.004 488.735C932.806 490.547 934.425 492.211 936.621 492.452C938.816 492.692 940.758 491.419 940.956 489.607Z" fill="#C7CED1"/>
<path d="M952.413 481.557C952.612 479.745 950.993 478.081 948.797 477.84C946.601 477.6 944.66 478.873 944.461 480.685C944.263 482.496 945.882 484.16 948.078 484.401C950.273 484.642 952.215 483.368 952.413 481.557Z" fill="#C7CED1"/>
<path d="M963.862 473.607C964.061 471.796 962.442 470.132 960.246 469.891C958.05 469.65 956.109 470.924 955.91 472.735C955.712 474.547 957.331 476.211 959.527 476.452C961.723 476.692 963.664 475.419 963.862 473.607Z" fill="#C7CED1"/>
<path d="M1550.6 632.286L1536.4 643.586L1547.6 645.086L1547.2 654.786L1535.7 663.886L1514.7 642.586L1513.9 632.786L1577.4 592.586L1598.2 603.686L1597.8 613.486L1586.3 622.786L1575.8 612.186L1561.8 623.186L1608.2 670.386L1616.8 663.486L1627.1 664.086L1626.7 673.886L1598.3 696.486L1588.5 686.086L1587.6 676.286L1596.8 679.486L1550.6 632.286Z" fill="#10098B"/>
<path d="M1550.4 622.587L1536.2 633.887L1547 645.087L1535.6 654.187L1514.5 632.787L1577.2 582.887L1597.7 603.687L1586.2 612.987L1575.7 602.487L1561.7 613.487L1608.1 660.587L1616.6 653.787L1626.6 664.087L1598.1 686.687L1588.3 676.287L1596.6 669.787L1550.4 622.587Z" fill="#1B30AF" stroke="#8094FF" stroke-miterlimit="10"/>
<path d="M1797.8 708.884L1821.3 693.584C1824.4 691.384 1829.2 691.784 1831.9 694.584L1852.6 711.484C1853.3 712.184 1857.7 710.984 1858 711.784C1858.3 712.584 1858.2 723.684 1858.1 724.484C1858 726.184 1857.1 727.884 1855.5 728.984L1827.2 749.184C1824.1 751.384 1819.3 750.984 1816.6 748.184L1792.2 722.884C1790.9 721.584 1790.3 719.984 1790.4 718.384C1790.4 717.684 1790.6 705.684 1790.8 704.984C1791.3 704.184 1796.8 709.584 1797.8 708.884Z" fill="#000E84"/>
<path d="M1755.9 667.684L1780.5 652.084C1783.6 649.884 1788.4 650.284 1791.1 653.084L1809.8 669.984C1810.4 670.584 1816.9 669.984 1817.2 670.784C1817.5 671.484 1817.3 682.084 1817.3 682.784C1817.3 684.584 1816.4 686.284 1814.7 687.484L1786.4 707.684C1783.3 709.884 1778.5 709.484 1775.8 706.684L1751.4 681.384C1750.2 680.184 1749.6 678.784 1749.6 677.284C1749.6 676.484 1749.6 665.384 1749.9 664.684C1750.3 663.684 1754.8 668.384 1755.9 667.684Z" fill="#000E84"/>
<path d="M1714.2 626.784L1740.3 611.084C1743.4 608.884 1748.2 609.284 1750.9 612.084L1777.1 627.984C1777.7 628.584 1777 640.284 1777 640.884C1777.3 642.984 1776.4 645.084 1774.4 646.484L1746.1 666.684C1743 668.884 1738.2 668.484 1735.5 665.684L1711.1 640.384C1710.1 639.284 1709.5 638.084 1709.3 636.884C1709.2 635.984 1708.8 624.784 1709.1 623.984C1709.5 622.884 1713 627.584 1714.2 626.784Z" fill="#000E84"/>
<path d="M1674.6 584.784L1700 570.084C1703.1 567.884 1707.9 568.284 1710.6 571.084L1736.4 586.984C1737 587.584 1736.8 599.384 1736.8 599.884C1737.1 601.984 1736.2 604.084 1734.3 605.484L1706 625.684C1702.9 627.884 1698.1 627.484 1695.4 624.684L1671 599.384C1669.5 597.884 1669 595.984 1669.2 594.184C1669.3 593.484 1668.9 582.784 1669.2 582.184C1669.6 581.484 1673.8 585.384 1674.6 584.784Z" fill="#000E84"/>
<path d="M1633.3 545.885L1659.7 529.185C1662.8 526.985 1667.6 527.385 1670.3 530.185L1688.9 547.285C1689.4 547.785 1696.5 547.085 1696.8 547.685C1697.1 548.285 1696.4 558.385 1696.5 559.085C1696.8 561.185 1695.9 563.285 1693.9 564.685L1665.6 584.885C1662.5 587.085 1657.7 586.685 1655 583.885L1630.6 558.585C1629.4 557.285 1628.8 555.785 1628.8 554.285C1628.8 553.485 1628.2 542.185 1628.6 541.385C1629 540.385 1632.4 546.485 1633.3 545.885Z" fill="#000E84"/>
<path d="M1592.8 503.785L1619.4 488.185C1622.5 485.985 1627.3 486.385 1630 489.185L1652.1 503.985C1652.7 504.685 1655.4 502.985 1656.3 506.885C1656.4 507.385 1656.2 517.885 1656.2 517.985C1656.5 520.085 1655.6 522.185 1653.6 523.585L1625.3 543.785C1622.2 545.985 1617.4 545.585 1614.7 542.785L1590.3 517.485C1588.9 516.085 1588.4 514.385 1588.5 512.685C1588.6 511.985 1588.3 502.085 1588.6 501.485C1589 500.585 1591.9 504.385 1592.8 503.785Z" fill="#1B30AF" stroke="#1B30AF" stroke-miterlimit="10"/>
<path d="M1793 701.987L1821.3 681.787C1824.4 679.587 1829.2 679.987 1831.9 682.787L1856.3 708.087C1859 710.887 1858.7 714.987 1855.5 717.187L1827.2 737.387C1824.1 739.587 1819.3 739.187 1816.6 736.387L1792.2 711.087C1789.5 708.287 1789.9 704.187 1793 701.987Z" fill="#070D26"/>
<path d="M1752.2 660.385L1780.5 640.185C1783.6 637.985 1788.4 638.385 1791.1 641.185L1815.5 666.485C1818.2 669.285 1817.9 673.385 1814.7 675.585L1786.4 695.785C1783.3 697.985 1778.5 697.585 1775.8 694.785L1751.4 669.485C1748.7 666.785 1749.1 662.685 1752.2 660.385Z" fill="#02024F"/>
<path d="M1711.9 619.487L1740.2 599.287C1743.3 597.087 1748.1 597.487 1750.8 600.287L1775.2 625.587C1777.9 628.387 1777.6 632.487 1774.4 634.687L1746.1 654.887C1743 657.087 1738.2 656.687 1735.5 653.887L1711.1 628.587C1708.5 625.787 1708.8 621.687 1711.9 619.487Z" fill="#1B30AF" stroke="#8094FF" stroke-miterlimit="10"/>
<path d="M1671.7 578.487L1700 558.287C1703.1 556.087 1707.9 556.487 1710.6 559.287L1735 584.587C1737.7 587.387 1737.4 591.487 1734.2 593.687L1705.9 613.887C1702.8 616.087 1698 615.687 1695.3 612.887L1670.9 587.587C1668.2 584.787 1668.5 580.687 1671.7 578.487Z" fill="#1B30AF" stroke="#1B30AF" stroke-miterlimit="10"/>
<path d="M1631.4 537.487L1659.7 517.287C1662.8 515.087 1667.6 515.487 1670.3 518.287L1694.7 543.587C1697.4 546.387 1697.1 550.487 1693.9 552.687L1665.6 572.887C1662.5 575.087 1657.7 574.687 1655 571.887L1630.6 546.587C1627.9 543.787 1628.3 539.687 1631.4 537.487Z" fill="#4863FF" stroke="#4863FF" stroke-miterlimit="10"/>
<path d="M1591.1 496.487L1619.4 476.287C1622.5 474.087 1627.3 474.487 1630 477.287L1654.4 502.587C1657.1 505.387 1656.8 509.487 1653.6 511.687L1625.3 531.887C1622.2 534.087 1617.4 533.687 1614.7 530.887L1590.3 505.587C1587.6 502.787 1588 498.687 1591.1 496.487Z" fill="#C7CED1"/>
<path d="M1253.8 586.09L1200 528.29C1196.5 524.49 1195.6 521.09 1195.2 514.89C1195.1 513.69 1194.8 505.59 1194.5 498.59C1194.3 492.49 1205 498.49 1205.5 497.49C1206.8 494.69 1270 455.39 1270 455.39C1276.6 450.89 1285.4 451.89 1291 457.89L1347.7 510.59C1348.5 511.39 1348.8 527.79 1348.7 529.29C1348.3 534.39 1346.6 539.59 1342.1 542.69L1274.8 588.69C1268.1 593.09 1259.4 592.09 1253.8 586.09Z" fill="#02024F"/>
<path d="M1264.6 560.989L1266.4 591.389C1266.4 591.389 1270.3 591.489 1274.8 588.589C1280.2 584.889 1342.1 542.589 1342.1 542.589C1342.1 542.589 1344.9 540.989 1347 537.589C1348.6 535.189 1349.2 531.989 1349.3 527.989C1349.3 523.989 1349 514.389 1348.8 509.389C1348.6 505.389 1346.7 507.189 1346.7 504.589C1346.7 502.589 1264.6 560.989 1264.6 560.989Z" fill="#000E84"/>
<path d="M1253 567.289L1199.2 509.489C1191.8 501.589 1193.4 492.189 1202.1 486.189L1269.8 443.889C1276.4 439.389 1287.2 441.089 1292.8 447.089L1343.9 496.889C1351.3 504.789 1350 517.789 1341.2 523.789L1273.9 569.789C1267.3 574.389 1258.5 573.289 1253 567.289Z" fill="#1B30AF" stroke="#8094FF" stroke-miterlimit="10"/>
<path d="M1255.4 543.99L1246.2 550.59L1227.2 499.29L1227 494.79L1236.5 492.59L1291.3 515.89L1293.3 515.69L1293.5 519.49L1284.7 525.19L1273.8 519.89L1251.7 533.99L1254.9 540.19L1255.4 543.99ZM1239.9 503.89L1239.8 503.99L1248.5 526.39L1264.9 515.89L1239.9 503.89Z" fill="#000E84"/>
<path d="M1329.6 492.589L1329.9 496.589L1322.2 501.289C1322.2 501.289 1321.9 501.189 1321.6 500.989C1321.2 500.789 1320.6 500.389 1319.9 499.889C1319.1 499.389 1318.3 498.789 1317.5 498.189C1318.4 502.489 1315.9 506.389 1310.1 510.089C1305.8 512.789 1301.8 514.089 1297.9 513.989C1294 513.889 1290.6 512.689 1287.7 510.289C1282.1 505.789 1283.3 500.089 1291.4 493.189L1300.5 485.489L1300 485.089C1296 481.889 1291.5 481.989 1286.3 485.289C1283 487.389 1282.4 488.289 1282.9 490.389C1283.1 491.189 1283 492.389 1283.2 494.189L1275.5 499.089C1272.7 496.289 1271.6 493.289 1272.1 489.989C1272.6 486.689 1275.4 483.389 1280.5 480.189C1285.6 476.889 1290.6 475.289 1295.3 475.289C1300 475.289 1304.3 476.889 1308.2 479.989L1323.1 491.989C1324.7 493.289 1324.9 493.589 1326.3 494.389L1329.6 492.589ZM1305.8 489.889L1297.5 497.089C1293.6 500.489 1292.9 503.089 1295.3 505.089C1298.1 507.389 1301.6 507.089 1305.9 504.389C1309.1 502.389 1310.8 500.189 1311 497.789C1311.2 495.489 1310.1 493.389 1307.8 491.489L1305.8 489.889Z" fill="#000E84"/>
<path d="M1254.8 540.39L1245.9 546.09L1226.9 494.79L1235.9 489.09L1293.3 515.89L1284.1 521.79L1273.2 516.49L1251.1 530.59L1254.8 540.39ZM1239.4 500.19L1239.3 500.29L1248 522.69L1264.4 512.19L1239.4 500.19Z" fill="#C7CED1"/>
<path d="M1309.7 506.491C1305.4 509.191 1301.4 510.491 1297.5 510.391C1293.6 510.291 1290.2 509.091 1287.3 506.691C1281.7 502.191 1282.9 496.491 1291 489.591L1300.1 481.891L1299.6 481.491C1295.6 478.291 1291.1 478.391 1285.9 481.691C1281.4 484.591 1280.5 487.491 1283.1 490.491L1275 495.691C1272.2 492.891 1271.1 489.891 1271.6 486.591C1272.1 483.291 1274.9 479.991 1280 476.791C1285.1 473.491 1290.1 471.891 1294.8 471.891C1299.5 471.891 1303.8 473.491 1307.7 476.591L1322.6 488.591C1325.2 490.691 1327.6 492.091 1329.8 492.891L1321.9 497.891C1321.9 497.891 1321.6 497.791 1321.3 497.591C1320.9 497.391 1320.3 496.991 1319.6 496.491C1318.8 495.991 1318 495.391 1317.2 494.791C1317.9 498.791 1315.4 502.791 1309.7 506.491ZM1305.3 486.191L1297 493.391C1293.1 496.791 1292.4 499.391 1294.8 501.391C1297.6 503.691 1301.1 503.391 1305.4 500.691C1308.6 498.691 1310.3 496.491 1310.5 494.091C1310.7 491.791 1309.6 489.691 1307.3 487.791L1305.3 486.191Z" fill="#C7CED1"/>
</g>
</g>
</g>
<defs>
<clipPath id="clip0_170_68416">
<rect width="1920" height="750" fill="white" transform="translate(0 0.789062)"/>
</clipPath>
<clipPath id="clip1_170_68416">
<rect width="1920" height="750" fill="white" transform="translate(0 0.789062)"/>
</clipPath>
</defs>
</svg>
